<?xml version="1.0" standalone="no"?>
<!DOCTYPE svg PUBLIC "-//W3C//DTD SVG 20010904//EN"
 "http://www.w3.org/TR/2001/REC-SVG-20010904/DTD/svg10.dtd">
<svg version="1.0" xmlns="http://www.w3.org/2000/svg"
 width="562.000000pt" height="404.000000pt" viewBox="0 0 562.000000 404.000000"
 preserveAspectRatio="xMidYMid meet">

<g transform="translate(0.000000,404.000000) scale(0.100000,-0.100000)"
fill="#000000" stroke="none">
<path d="M2780 3735 c-168 -26 -318 -102 -435 -219 -166 -168 -246 -356 -246
-580 1 -139 24 -252 72 -348 l19 -37 55 32 c30 17 55 36 55 41 0 5 -11 37 -24
70 -66 165 -53 374 34 546 34 66 86 140 100 140 7 0 10 -193 10 -553 l0 -553
53 -31 c97 -59 87 -132 87 611 l0 657 63 29 c34 16 74 32 90 36 l27 6 0 -721
0 -721 23 -9 c12 -4 43 -11 70 -13 l47 -6 0 819 c0 451 -3 819 -7 818 -5 -1
-46 -7 -93 -14z"/>
<path d="M2990 2935 l0 -815 43 0 c23 0 52 3 65 6 l22 6 0 238 c0 213 2 238
18 252 20 17 245 148 255 148 4 0 56 29 116 65 60 36 114 65 120 65 6 0 8 -16
4 -37 -21 -155 -84 -290 -184 -397 l-68 -73 50 -49 49 -49 61 65 c161 172 239
383 226 617 -7 134 -25 203 -82 318 -122 247 -359 413 -642 449 l-53 7 0 -816z
m257 606 c171 -81 304 -233 359 -411 8 -25 14 -50 14 -57 0 -13 -462 -283
-485 -283 -13 0 -15 46 -15 396 l0 397 33 -7 c17 -4 60 -19 94 -35z"/>
<path d="M1927 1754 c-4 -4 -7 -124 -7 -266 l0 -258 35 0 c19 0 35 1 35 3 0 2
-11 90 -25 195 -27 207 -30 251 -16 237 5 -6 58 -106 119 -223 l110 -214 26
57 c30 65 30 66 16 63 -6 -2 -62 89 -124 202 -94 170 -118 206 -138 208 -13 2
-27 0 -31 -4z"/>
<path d="M2385 1710 c-15 -29 -24 -55 -21 -58 3 -3 6 0 6 6 0 7 5 12 10 12 6
0 10 -80 10 -220 l0 -220 35 0 35 0 -2 263 c-3 261 -3 262 -25 265 -18 3 -27
-7 -48 -48z"/>
<path d="M2326 1585 c-9 -26 -7 -32 5 -12 6 10 9 21 6 23 -2 3 -7 -2 -11 -11z"/>
<path d="M2700 1595 c0 -3 14 -11 30 -17 49 -16 61 -54 60 -176 -2 -181 -3
-172 25 -172 l25 0 0 141 c0 180 -12 206 -107 224 -18 4 -33 4 -33 0z"/>
<path d="M3410 1593 c-69 -7 -80 -12 -80 -38 0 -31 6 -31 55 2 50 34 89 34
123 -1 27 -26 27 -29 30 -176 l3 -150 25 0 24 0 0 138 c0 118 -3 141 -20 169
-10 17 -27 36 -37 41 -24 13 -80 20 -123 15z"/>
<path d="M2602 1581 c-8 -4 -12 -18 -10 -29 3 -21 4 -21 53 8 l50 30 -40 0
c-22 0 -46 -4 -53 -9z"/>
<path d="M2929 1528 c87 -190 141 -298 151 -298 6 0 15 12 21 26 10 27 -5 62
-121 298 -11 24 -23 32 -47 34 l-33 3 29 -63z"/>
<path d="M3207 1583 c-10 -18 -89 -265 -85 -268 3 -4 107 226 116 258 4 17
-22 25 -31 10z"/>
<path d="M3718 1574 l-28 -15 0 -164 0 -165 29 0 29 0 3 93 c2 50 2 131 -1
179 l-5 86 -27 -14z"/>
<path d="M3860 1568 c-18 -13 -40 -34 -49 -48 l-16 -24 36 22 c22 13 52 22 78
22 37 0 41 2 41 25 0 21 -5 25 -29 25 -15 0 -43 -10 -61 -22z"/>
<path d="M2286 1495 c-9 -26 -7 -32 5 -12 6 10 9 21 6 23 -2 3 -7 -2 -11 -11z"/>
<path d="M2247 1405 c-24 -50 -20 -58 4 -12 11 22 19 41 17 43 -3 2 -12 -12
-21 -31z"/>
<path d="M2585 1389 c-30 -26 -35 -37 -35 -73 0 -49 27 -82 76 -92 35 -7 107
10 123 30 9 11 2 12 -39 8 -43 -4 -55 -1 -75 18 -53 50 -13 111 85 131 28 5
22 7 -32 8 -62 1 -70 -2 -103 -30z"/>
<path d="M3343 1400 c-68 -41 -61 -146 12 -170 56 -19 155 8 155 42 0 9 -3 9
-12 0 -17 -17 -90 -15 -116 4 -18 12 -22 24 -20 51 4 44 39 74 100 84 40 6 38
7 -22 8 -48 1 -73 -4 -97 -19z"/>
<path d="M3150 1328 c0 -3 7 -19 15 -34 20 -38 19 -104 -1 -133 -25 -35 -75
-51 -159 -51 l-75 0 0 -30 0 -30 73 0 c94 1 144 13 174 43 51 50 50 165 -1
216 -14 14 -26 23 -26 19z"/>
<path d="M1926 1071 c-3 -5 1 -12 10 -15 9 -3 213 -6 455 -6 384 0 439 2 439
15 0 13 -57 15 -449 15 -254 0 -452 -4 -455 -9z"/>
<path d="M3270 1070 c0 -18 45 -21 354 -18 237 2 310 6 314 16 3 9 -68 12
-332 12 -213 0 -336 -4 -336 -10z"/>
<path d="M2198 984 l-28 -15 0 -254 0 -255 30 0 30 0 0 270 c0 149 -1 270 -2
270 -2 -1 -15 -8 -30 -16z"/>
<path d="M3088 978 c-19 -15 -23 -90 -20 -350 l2 -168 25 0 25 0 0 265 c0 146
-4 265 -8 265 -5 0 -15 -6 -24 -12z"/>
<path d="M1831 958 c-5 -13 -52 -130 -104 -260 l-95 -238 34 0 c31 0 34 3 44
43 26 96 34 122 42 132 4 5 8 18 8 28 0 33 62 247 70 242 4 -2 29 -55 55 -117
27 -62 60 -140 75 -173 14 -33 35 -81 46 -107 18 -45 21 -48 56 -48 l37 0 -33
78 c-172 400 -191 442 -209 442 -9 0 -21 -10 -26 -22z"/>
<path d="M2354 786 c-58 -58 -39 -119 48 -155 97 -39 122 -55 133 -84 7 -22 6
-35 -7 -58 -21 -37 -7 -37 31 -1 27 25 35 48 32 94 -2 28 -40 56 -115 84 -39
15 -79 34 -88 42 -24 21 -22 61 4 89 35 37 0 27 -38 -11z"/>
<path d="M2490 809 c8 -5 32 -19 53 -30 l37 -19 0 24 c0 18 -7 25 -31 30 -17
3 -41 6 -53 6 -17 0 -18 -2 -6 -11z"/>
<path d="M2718 809 c-18 -10 -26 -49 -10 -49 4 0 27 14 52 30 l45 30 -35 0
c-19 0 -43 -5 -52 -11z"/>
<path d="M2852 809 c44 -17 59 -63 57 -186 -2 -170 -3 -163 27 -163 l25 0 -3
149 -3 150 -29 30 c-23 24 -38 31 -65 30 -35 -1 -35 -1 -9 -10z"/>
<path d="M3430 798 c43 -29 83 -87 76 -111 -4 -16 1 -18 37 -15 38 3 42 5 39
28 -7 58 -68 110 -138 117 l-49 5 35 -24z"/>
<path d="M3783 794 c-22 -20 -23 -24 -8 -19 43 15 56 17 80 11 51 -13 65 -57
65 -198 l0 -128 30 0 30 0 0 129 c0 135 -7 171 -42 209 -32 33 -117 32 -155
-4z"/>
<path d="M4033 800 c-40 -24 -44 -45 -5 -24 55 28 108 11 137 -46 11 -21 15
-62 15 -150 l0 -120 30 0 30 0 0 130 c0 142 -10 185 -51 214 -33 23 -116 21
-156 -4z"/>
<path d="M3271 784 c-61 -51 -74 -172 -28 -256 23 -42 62 -64 128 -74 l44 -6
-31 20 c-64 41 -110 134 -113 230 -1 47 2 57 28 83 36 36 14 39 -28 3z"/>
<path d="M3693 798 c-22 -11 -23 -15 -23 -175 l0 -163 30 0 30 0 0 175 c0 96
-3 175 -7 174 -5 0 -18 -5 -30 -11z"/>
<path d="M2725 635 c-42 -22 -55 -43 -55 -90 0 -48 28 -81 76 -91 38 -7 107
11 125 33 12 14 11 15 -11 8 -42 -13 -81 -7 -107 17 -49 46 -11 112 74 128 36
7 36 8 -17 9 -32 0 -68 -6 -85 -14z"/>
<path d="M3540 558 c0 -14 -12 -40 -26 -57 -33 -39 -16 -40 25 -2 35 33 37 40
16 67 -14 18 -14 18 -15 -8z"/>
<path d="M2320 495 c0 -20 6 -25 38 -30 20 -4 46 -9 57 -12 11 -3 -4 11 -34
31 -29 20 -55 36 -57 36 -2 0 -4 -11 -4 -25z"/>
</g>
</svg>
